<mxfile host="app.diagrams.net" agent="Mozilla/5.0 (Windows NT 10.0; Win64; x64) AppleWebKit/537.36 (KHTML, like Gecko) Chrome/140.0.0.0 Safari/537.36" version="28.2.5">
  <diagram id="prtHgNgQTEPvFCAcTncT" name="Page-1">
    <mxGraphModel dx="2253" dy="2040" grid="1" gridSize="10" guides="1" tooltips="1" connect="1" arrows="1" fold="1" page="1" pageScale="1" pageWidth="827" pageHeight="1169" math="0" shadow="0">
      <root>
        <mxCell id="0" />
        <mxCell id="1" parent="0" />
        <mxCell id="XMqBpiUEW8gHsCYNpWc5-32" value="" style="ellipse;shape=cloud;whiteSpace=wrap;html=1;" parent="1" vertex="1">
          <mxGeometry x="-62" y="-30" width="958" height="675" as="geometry" />
        </mxCell>
        <mxCell id="XMqBpiUEW8gHsCYNpWc5-3" value="" style="group" parent="1" vertex="1" connectable="0">
          <mxGeometry x="200" y="155" width="666" height="460" as="geometry" />
        </mxCell>
        <mxCell id="XMqBpiUEW8gHsCYNpWc5-34" value="" style="group" parent="XMqBpiUEW8gHsCYNpWc5-3" vertex="1" connectable="0">
          <mxGeometry width="200" height="110" as="geometry" />
        </mxCell>
        <mxCell id="XMqBpiUEW8gHsCYNpWc5-1" value="" style="rounded=1;whiteSpace=wrap;html=1;" parent="XMqBpiUEW8gHsCYNpWc5-34" vertex="1">
          <mxGeometry width="200" height="110" as="geometry" />
        </mxCell>
        <mxCell id="XMqBpiUEW8gHsCYNpWc5-2" value="Backend" style="text;html=1;align=center;verticalAlign=middle;whiteSpace=wrap;rounded=0;" parent="XMqBpiUEW8gHsCYNpWc5-34" vertex="1">
          <mxGeometry x="70" y="40" width="60" height="30" as="geometry" />
        </mxCell>
        <mxCell id="XMqBpiUEW8gHsCYNpWc5-38" value="Python" style="text;html=1;align=center;verticalAlign=middle;whiteSpace=wrap;rounded=0;" parent="XMqBpiUEW8gHsCYNpWc5-34" vertex="1">
          <mxGeometry x="70" width="60" height="30" as="geometry" />
        </mxCell>
        <mxCell id="TfznMFD7uj6jojsV23gj-1" value="SQLite DB" style="shape=cylinder3;whiteSpace=wrap;html=1;boundedLbl=1;backgroundOutline=1;size=15;" vertex="1" parent="XMqBpiUEW8gHsCYNpWc5-3">
          <mxGeometry x="320" y="95" width="110" height="155" as="geometry" />
        </mxCell>
        <mxCell id="XMqBpiUEW8gHsCYNpWc5-23" style="edgeStyle=orthogonalEdgeStyle;rounded=0;orthogonalLoop=1;jettySize=auto;html=1;exitX=1;exitY=0.5;exitDx=0;exitDy=0;" parent="XMqBpiUEW8gHsCYNpWc5-3" source="XMqBpiUEW8gHsCYNpWc5-1" target="TfznMFD7uj6jojsV23gj-1" edge="1">
          <mxGeometry relative="1" as="geometry">
            <mxPoint x="300" y="145" as="targetPoint" />
          </mxGeometry>
        </mxCell>
        <mxCell id="XMqBpiUEW8gHsCYNpWc5-33" value="" style="group" parent="1" vertex="1" connectable="0">
          <mxGeometry x="200" y="380" width="290" height="400" as="geometry" />
        </mxCell>
        <mxCell id="XMqBpiUEW8gHsCYNpWc5-11" value="Visitor" style="shape=umlActor;verticalLabelPosition=bottom;verticalAlign=top;html=1;outlineConnect=0;" parent="XMqBpiUEW8gHsCYNpWc5-33" vertex="1">
          <mxGeometry x="87" y="245" width="30" height="60" as="geometry" />
        </mxCell>
        <mxCell id="XMqBpiUEW8gHsCYNpWc5-13" value="" style="endArrow=classic;startArrow=classic;html=1;rounded=0;entryX=0.46;entryY=0.982;entryDx=0;entryDy=0;entryPerimeter=0;" parent="XMqBpiUEW8gHsCYNpWc5-33" edge="1">
          <mxGeometry width="50" height="50" relative="1" as="geometry">
            <mxPoint x="104" y="245" as="sourcePoint" />
            <mxPoint x="101" y="108.01999999999998" as="targetPoint" />
          </mxGeometry>
        </mxCell>
        <mxCell id="XMqBpiUEW8gHsCYNpWc5-6" value="" style="group" parent="XMqBpiUEW8gHsCYNpWc5-33" vertex="1" connectable="0">
          <mxGeometry width="290" height="110" as="geometry" />
        </mxCell>
        <mxCell id="XMqBpiUEW8gHsCYNpWc5-7" value="" style="rounded=1;whiteSpace=wrap;html=1;" parent="XMqBpiUEW8gHsCYNpWc5-6" vertex="1">
          <mxGeometry x="-80" width="340" height="110" as="geometry" />
        </mxCell>
        <mxCell id="XMqBpiUEW8gHsCYNpWc5-8" value="Frontend" style="text;html=1;align=center;verticalAlign=middle;whiteSpace=wrap;rounded=0;" parent="XMqBpiUEW8gHsCYNpWc5-6" vertex="1">
          <mxGeometry x="70" width="60" height="30" as="geometry" />
        </mxCell>
        <mxCell id="TfznMFD7uj6jojsV23gj-5" value="" style="group" vertex="1" connectable="0" parent="XMqBpiUEW8gHsCYNpWc5-6">
          <mxGeometry x="110" y="40" width="120" height="60" as="geometry" />
        </mxCell>
        <mxCell id="TfznMFD7uj6jojsV23gj-8" value="" style="group" vertex="1" connectable="0" parent="TfznMFD7uj6jojsV23gj-5">
          <mxGeometry x="10" width="120" height="60" as="geometry" />
        </mxCell>
        <mxCell id="TfznMFD7uj6jojsV23gj-6" value="" style="rounded=1;whiteSpace=wrap;html=1;" vertex="1" parent="TfznMFD7uj6jojsV23gj-8">
          <mxGeometry width="120" height="60" as="geometry" />
        </mxCell>
        <mxCell id="TfznMFD7uj6jojsV23gj-7" value="JS" style="text;html=1;align=center;verticalAlign=middle;whiteSpace=wrap;rounded=0;" vertex="1" parent="TfznMFD7uj6jojsV23gj-8">
          <mxGeometry x="27" y="15" width="60" height="30" as="geometry" />
        </mxCell>
        <mxCell id="XMqBpiUEW8gHsCYNpWc5-10" value="web host" style="text;html=1;align=center;verticalAlign=middle;whiteSpace=wrap;rounded=0;" parent="1" vertex="1">
          <mxGeometry x="440" y="585" width="60" height="30" as="geometry" />
        </mxCell>
        <mxCell id="XMqBpiUEW8gHsCYNpWc5-26" style="edgeStyle=orthogonalEdgeStyle;rounded=0;orthogonalLoop=1;jettySize=auto;html=1;exitX=0.5;exitY=1;exitDx=0;exitDy=0;entryX=0.5;entryY=0;entryDx=0;entryDy=0;" parent="1" source="XMqBpiUEW8gHsCYNpWc5-1" target="XMqBpiUEW8gHsCYNpWc5-8" edge="1">
          <mxGeometry relative="1" as="geometry" />
        </mxCell>
        <mxCell id="XMqBpiUEW8gHsCYNpWc5-40" value="&lt;div&gt;https://glitch.com/pricing&lt;/div&gt;https://www.freehosting.com/&lt;br&gt;https://www.infinityfree.com/" style="shape=note;whiteSpace=wrap;html=1;backgroundOutline=1;fontColor=#000000;darkOpacity=0.05;fillColor=#FFF9B2;strokeColor=none;fillStyle=solid;direction=west;gradientDirection=north;gradientColor=#FFF2A1;shadow=1;size=20;pointerEvents=1;" parent="1" vertex="1">
          <mxGeometry x="627" y="605" width="200" height="90" as="geometry" />
        </mxCell>
        <mxCell id="XMqBpiUEW8gHsCYNpWc5-41" value="" style="rounded=1;whiteSpace=wrap;html=1;" parent="1" vertex="1">
          <mxGeometry x="-280" y="120" width="250" height="390" as="geometry" />
        </mxCell>
        <mxCell id="XMqBpiUEW8gHsCYNpWc5-43" value="" style="rounded=1;whiteSpace=wrap;html=1;" parent="1" vertex="1">
          <mxGeometry x="-215" y="390" width="120" height="35" as="geometry" />
        </mxCell>
        <mxCell id="XMqBpiUEW8gHsCYNpWc5-49" value="+1" style="text;html=1;align=center;verticalAlign=middle;whiteSpace=wrap;rounded=0;" parent="1" vertex="1">
          <mxGeometry x="-185" y="392.5" width="60" height="30" as="geometry" />
        </mxCell>
        <mxCell id="XMqBpiUEW8gHsCYNpWc5-50" value="Users" style="shape=table;startSize=30;container=1;collapsible=0;childLayout=tableLayout;fixedRows=1;rowLines=0;fontStyle=0;strokeColor=default;fontSize=16;" parent="1" vertex="1">
          <mxGeometry x="-245" y="230" width="180" height="90" as="geometry" />
        </mxCell>
        <mxCell id="XMqBpiUEW8gHsCYNpWc5-51" value="" style="shape=tableRow;horizontal=0;startSize=0;swimlaneHead=0;swimlaneBody=0;top=0;left=0;bottom=0;right=0;collapsible=0;dropTarget=0;fillColor=none;points=[[0,0.5],[1,0.5]];portConstraint=eastwest;strokeColor=inherit;fontSize=16;" parent="XMqBpiUEW8gHsCYNpWc5-50" vertex="1">
          <mxGeometry y="30" width="180" height="30" as="geometry" />
        </mxCell>
        <mxCell id="XMqBpiUEW8gHsCYNpWc5-52" value="User01" style="shape=partialRectangle;html=1;whiteSpace=wrap;connectable=0;fillColor=none;top=0;left=0;bottom=0;right=0;overflow=hidden;pointerEvents=1;strokeColor=inherit;fontSize=16;" parent="XMqBpiUEW8gHsCYNpWc5-51" vertex="1">
          <mxGeometry width="95" height="30" as="geometry">
            <mxRectangle width="95" height="30" as="alternateBounds" />
          </mxGeometry>
        </mxCell>
        <mxCell id="XMqBpiUEW8gHsCYNpWc5-53" value="Value 1" style="shape=partialRectangle;html=1;whiteSpace=wrap;connectable=0;fillColor=none;top=0;left=0;bottom=0;right=0;align=left;spacingLeft=6;overflow=hidden;strokeColor=inherit;fontSize=16;" parent="XMqBpiUEW8gHsCYNpWc5-51" vertex="1">
          <mxGeometry x="95" width="85" height="30" as="geometry">
            <mxRectangle width="85" height="30" as="alternateBounds" />
          </mxGeometry>
        </mxCell>
        <mxCell id="XMqBpiUEW8gHsCYNpWc5-54" value="" style="shape=tableRow;horizontal=0;startSize=0;swimlaneHead=0;swimlaneBody=0;top=0;left=0;bottom=0;right=0;collapsible=0;dropTarget=0;fillColor=none;points=[[0,0.5],[1,0.5]];portConstraint=eastwest;strokeColor=inherit;fontSize=16;" parent="XMqBpiUEW8gHsCYNpWc5-50" vertex="1">
          <mxGeometry y="60" width="180" height="30" as="geometry" />
        </mxCell>
        <mxCell id="XMqBpiUEW8gHsCYNpWc5-55" value="User02" style="shape=partialRectangle;html=1;whiteSpace=wrap;connectable=0;fillColor=none;top=0;left=0;bottom=0;right=0;overflow=hidden;strokeColor=inherit;fontSize=16;" parent="XMqBpiUEW8gHsCYNpWc5-54" vertex="1">
          <mxGeometry width="95" height="30" as="geometry">
            <mxRectangle width="95" height="30" as="alternateBounds" />
          </mxGeometry>
        </mxCell>
        <mxCell id="XMqBpiUEW8gHsCYNpWc5-56" value="Value 2" style="shape=partialRectangle;html=1;whiteSpace=wrap;connectable=0;fillColor=none;top=0;left=0;bottom=0;right=0;align=left;spacingLeft=6;overflow=hidden;strokeColor=inherit;fontSize=16;" parent="XMqBpiUEW8gHsCYNpWc5-54" vertex="1">
          <mxGeometry x="95" width="85" height="30" as="geometry">
            <mxRectangle width="85" height="30" as="alternateBounds" />
          </mxGeometry>
        </mxCell>
        <mxCell id="XMqBpiUEW8gHsCYNpWc5-60" value="Interface" style="text;html=1;align=center;verticalAlign=middle;whiteSpace=wrap;rounded=0;" parent="1" vertex="1">
          <mxGeometry x="-185" y="120" width="60" height="30" as="geometry" />
        </mxCell>
        <mxCell id="TfznMFD7uj6jojsV23gj-3" value="" style="group" vertex="1" connectable="0" parent="1">
          <mxGeometry x="140" y="420" width="120" height="60" as="geometry" />
        </mxCell>
        <mxCell id="TfznMFD7uj6jojsV23gj-2" value="" style="rounded=1;whiteSpace=wrap;html=1;" vertex="1" parent="TfznMFD7uj6jojsV23gj-3">
          <mxGeometry width="120" height="60" as="geometry" />
        </mxCell>
        <mxCell id="XMqBpiUEW8gHsCYNpWc5-39" value="HTML" style="text;html=1;align=center;verticalAlign=middle;whiteSpace=wrap;rounded=0;" parent="TfznMFD7uj6jojsV23gj-3" vertex="1">
          <mxGeometry x="30" y="15" width="60" height="30" as="geometry" />
        </mxCell>
      </root>
    </mxGraphModel>
  </diagram>
</mxfile>
